<svg id="レイヤー_1" data-name="レイヤー 1" xmlns="http://www.w3.org/2000/svg" viewBox="0 0 82.75 74.38"><defs><style>.cls-1{fill:#000000;}</style></defs><path class="cls-1" d="M71,29.67A62.45,62.45,0,0,1,82.75,17.88a43.42,43.42,0,0,0-18.2,6.72,45.09,45.09,0,0,0-4.9-2.8A44.06,44.06,0,0,1,65,6.92c-6.31,2.8-10.83,8.32-13.25,11.91a42.5,42.5,0,0,0-5.81-1.1L41.37,0,36.81,17.73a41.34,41.34,0,0,0-4.85.86c-.34.06-.68.11-1,.18C28.51,15.17,24,9.7,17.75,6.92A43.79,43.79,0,0,1,23,21.2c-1,.4-2,.84-2.93,1.31s-1.85,1-2.76,1.51A43.76,43.76,0,0,0,0,17.88,84,84,0,0,1,12.06,29.41,53,53,0,0,0,.8,44.35L0,45.92.8,47.5c8.48,16.58,24,26.88,40.57,26.88s32.1-10.3,40.57-26.88l.81-1.58-.81-1.57A53.17,53.17,0,0,0,71,29.67ZM41.37,67.46c-13.63,0-26.06-8-33.56-21.54A43.89,43.89,0,0,1,22.37,30c.38-.2.75-.41,1.13-.6a37.32,37.32,0,0,1,16.62-3.87c6,0,12.11.59,17.13,3.07a45.91,45.91,0,0,1,7.07,4.29,45.61,45.61,0,0,1,10.62,13C67.44,59.44,55,67.46,41.37,67.46Z"/><path class="cls-1" d="M41.37,29.39A16.73,16.73,0,1,0,58.1,46.11,16.73,16.73,0,0,0,41.37,29.39Zm0,24.09A7.37,7.37,0,0,1,34,46.11a7.29,7.29,0,0,1,.49-2.57l6.12,2.38L38,39.59a7.25,7.25,0,0,1,3.34-.84,7.37,7.37,0,1,1,0,14.73Z"/></svg>