<svg id="レイヤー_1" data-name="レイヤー 1" xmlns="http://www.w3.org/2000/svg" viewBox="0 0 82.75 39.85"><defs><style>.cls-1{fill:#000000;}</style></defs><path class="cls-1" d="M65.44,15.83A43.91,43.91,0,0,0,82.75,22,64,64,0,0,1,71.84,11.3a45.62,45.62,0,0,0,6.31-6.5L72.09,0A37.83,37.83,0,0,1,59.25,10.4a37.33,37.33,0,0,1-16.63,3.88A37.4,37.4,0,0,1,26,10.4,37.7,37.7,0,0,1,13.16,0L7.09,4.8A46.34,46.34,0,0,0,11.91,10,62.16,62.16,0,0,1,0,22,43.22,43.22,0,0,0,18.5,15a43.62,43.62,0,0,0,4.06,2.29l.61.29a44.49,44.49,0,0,1-5.42,15.31C24.32,30,28.94,24.14,31.29,20.58a45.81,45.81,0,0,0,5.39,1l4.69,18.23,4.63-18a44.08,44.08,0,0,0,5.79-.8c2.44,3.59,6.94,9.07,13.21,11.85a44,44,0,0,1-5.24-14.28c1-.41,2-.84,2.92-1.32S64.54,16.36,65.44,15.83Z"/></svg>